<?xml version="1.0" standalone="no"?>
<!DOCTYPE svg PUBLIC "-//W3C//DTD SVG 20010904//EN"
 "http://www.w3.org/TR/2001/REC-SVG-20010904/DTD/svg10.dtd">
<svg version="1.0" xmlns="http://www.w3.org/2000/svg"
 width="241.000000pt" height="209.000000pt" viewBox="0 0 241.000000 209.000000"
 preserveAspectRatio="xMidYMid meet">
<metadata>
Created by potrace 1.16, written by Peter Selinger 2001-2019
</metadata>
<g transform="translate(0.000000,209.000000) scale(0.100000,-0.100000)"
fill="#000000" stroke="none">
<path d="M1055 2051 c-11 -5 -24 -6 -28 -4 -25 15 -278 -74 -256 -89 11 -7 9
-8 -6 -7 -26 3 -47 -7 -112 -48 -57 -36 -67 -49 -30 -37 12 3 19 3 15 -1 -4
-4 -22 -9 -40 -11 -26 -3 -51 -23 -126 -99 -81 -84 -91 -99 -86 -122 5 -18 4
-24 -5 -19 -6 4 -9 12 -6 17 4 5 4 9 2 9 -3 0 -23 -31 -46 -69 -28 -46 -39
-74 -35 -86 5 -11 4 -16 -3 -12 -19 12 -65 -105 -87 -222 -27 -141 -13 -450
19 -437 10 3 12 -4 9 -27 -5 -40 4 -69 18 -61 7 4 8 2 4 -5 -9 -15 3 -53 15
-46 5 3 6 0 3 -8 -7 -18 45 -119 57 -111 5 3 6 -1 3 -9 -6 -16 108 -172 139
-191 14 -8 20 -8 27 4 7 11 9 8 7 -14 -2 -25 8 -36 68 -83 83 -63 169 -114
187 -109 7 1 9 1 5 -2 -14 -7 102 -58 178 -78 57 -15 105 -19 255 -19 165 0
193 2 259 23 103 33 184 70 176 82 -3 5 0 7 7 5 25 -10 176 94 263 180 59 59
107 124 99 136 -4 7 -3 9 4 5 6 -3 19 6 30 21 28 41 75 136 63 128 -6 -3 -11
-1 -11 4 0 6 7 11 16 11 8 0 12 4 9 10 -3 5 -1 10 6 10 6 0 9 8 6 20 -3 11 -1
18 3 15 9 -6 35 63 27 72 -3 2 -13 -9 -22 -26 -18 -36 -29 -42 -15 -8 6 12 13
30 16 40 4 11 13 16 21 12 10 -3 13 -1 10 9 -3 7 -2 17 3 22 14 15 30 147 29
236 0 78 -15 200 -18 150 0 -13 -5 -21 -10 -17 -6 3 -6 17 1 36 13 37 0 91
-50 209 -43 100 -71 150 -83 150 -5 0 -8 6 -6 13 1 6 -3 11 -10 10 -6 -1 -17
4 -23 12 -7 8 -19 15 -26 15 -8 0 -14 5 -14 11 0 11 15 4 43 -19 52 -45 -29
66 -96 131 -90 88 -97 93 -108 77 -8 -11 -9 -9 -4 9 6 20 4 23 -9 18 -10 -4
-15 -3 -12 2 7 10 -90 72 -119 76 -46 7 -86 18 -91 26 -7 12 1 11 44 -6 29
-12 33 -12 19 -1 -10 8 -68 31 -130 51 -107 36 -119 38 -267 41 -85 2 -164 0
-175 -5z m352 -701 c162 -21 265 -76 307 -162 31 -66 32 -73 17 -127 -12 -42
-13 -43 -27 -22 -30 43 -64 51 -209 51 -107 0 -145 -4 -172 -17 -39 -18 -70
-61 -79 -110 -6 -31 -9 -33 -45 -33 -30 0 -39 4 -39 18 -1 42 -39 101 -79 121
-35 18 -59 21 -176 21 -147 0 -176 -7 -213 -55 -23 -29 -27 -26 -36 31 -5 29
-1 55 14 97 38 100 137 164 290 185 91 13 353 14 447 2z m-350 -320 c48 -29
57 -53 50 -143 -7 -88 -29 -136 -72 -155 -14 -7 -71 -12 -126 -12 -152 0 -181
23 -200 156 -12 91 -2 126 45 155 46 28 257 28 303 -1z m584 3 c47 -28 60 -68
50 -155 -9 -84 -19 -107 -57 -137 -23 -18 -40 -21 -139 -21 -99 0 -116 3 -139
21 -40 32 -58 75 -63 158 -5 68 -3 79 17 104 33 41 51 46 183 46 95 1 125 -2
148 -16z m-466 -343 c19 -16 75 -3 75 17 0 11 -7 13 -30 8 l-30 -7 0 81 0 81
28 0 c25 0 28 -5 39 -50 29 -121 109 -161 291 -144 80 7 123 29 157 80 l21 30
26 -53 c14 -29 23 -53 18 -53 -11 0 -34 -61 -32 -85 1 -12 -1 -15 -5 -9 -5 8
-21 -3 -46 -32 -21 -24 -34 -44 -28 -44 6 0 11 -5 11 -11 0 -6 -6 -9 -14 -6
-8 3 -43 -13 -78 -35 -106 -69 -232 -118 -303 -118 -18 0 -38 -8 -48 -20 -9
-11 -24 -20 -32 -20 -8 0 -23 9 -32 20 -10 12 -30 20 -48 20 -70 0 -228 61
-302 116 -33 25 -48 29 -56 17 -2 -5 -2 -3 -1 4 2 7 -14 31 -35 53 -21 22 -54
68 -73 101 l-36 60 24 42 c13 23 24 53 24 67 0 21 5 17 28 -25 15 -27 41 -59
59 -71 56 -37 249 -42 315 -8 38 20 78 83 86 136 6 36 7 28 10 -44 2 -59 7
-90 17 -98z"/>
</g>
</svg>
